<svg display='none' xmlns="http://www.w3.org/2000/svg">
    <symbol id='facebook' width="24" height="24">
        <path d="M17 3H7a4 4 0 00-4 4v10a4 4 0 004 4h5.621v-6.961h-2.343v-2.725h2.343V9.309c0-2.324 1.421-3.591 3.495-3.591.699-.002 1.397.034 2.092.105v2.43H16.78c-1.13 0-1.35.534-1.35 1.322v1.735h2.7l-.351 2.725h-2.365V21H17a4 4 0 004-4V7a4 4 0 00-4-4z"/>
    </symbol>
    <symbol id='twitter' viewBox="0 0 50 50" width="24" height="24">
        <path d="M50.061 10.438a20.646 20.646 0 01-5.908 1.62 10.31 10.31 0 004.523-5.688 20.6 20.6 0 01-6.531 2.493 10.258 10.258 0 00-7.504-3.247c-5.68 0-10.284 4.604-10.284 10.282 0 .805.092 1.589.269 2.343-8.546-.429-16.124-4.523-21.197-10.744a10.257 10.257 0 00-1.391 5.172c0 3.567 1.812 6.713 4.574 8.56a10.229 10.229 0 01-4.657-1.288v.131c0 4.984 3.544 9.134 8.245 10.084-.86.236-1.769.36-2.707.36-.664 0-1.309-.064-1.938-.186 1.313 4.081 5.108 7.06 9.607 7.143a20.626 20.626 0 01-12.77 4.399c-.833 0-1.649-.048-2.452-.144a29.086 29.086 0 0015.762 4.619c18.915 0 29.26-15.668 29.26-29.252 0-.448-.011-.894-.03-1.332a20.893 20.893 0 005.129-5.325z"/>
    </symbol>
    <symbol id='google' viewBox="0 0 50 50" width="24" height="24">
        <path d="M25.997 48C13.312 48 2.992 37.683 2.992 25c0-12.682 10.32-23 23.005-23a22.95 22.95 0 0115.491 5.997l.774.706-7.588 7.585-.703-.602a12.274 12.274 0 00-7.975-2.956c-6.767 0-12.273 5.504-12.273 12.27s5.506 12.27 12.273 12.27c4.879 0 8.733-2.491 10.549-6.737H24.997V20.176l22.549.031.167.793c1.179 5.582.235 13.793-4.528 19.667C39.238 45.533 33.456 48 25.997 48z"/>
    </symbol>
</svg>