<svg fill="#FFF" xmlns="http://www.w3.org/2000/svg" viewBox="0 0 50 50" width="24" height="24"><path d="M50.061 10.438a20.646 20.646 0 01-5.908 1.62 10.31 10.31 0 004.523-5.688 20.6 20.6 0 01-6.531 2.493 10.258 10.258 0 00-7.504-3.247c-5.68 0-10.284 4.604-10.284 10.282 0 .805.092 1.589.269 2.343-8.546-.429-16.124-4.523-21.197-10.744a10.257 10.257 0 00-1.391 5.172c0 3.567 1.812 6.713 4.574 8.56a10.229 10.229 0 01-4.657-1.288v.131c0 4.984 3.544 9.134 8.245 10.084-.86.236-1.769.36-2.707.36-.664 0-1.309-.064-1.938-.186 1.313 4.081 5.108 7.06 9.607 7.143a20.626 20.626 0 01-12.77 4.399c-.833 0-1.649-.048-2.452-.144a29.086 29.086 0 0015.762 4.619c18.915 0 29.26-15.668 29.26-29.252 0-.448-.011-.894-.03-1.332a20.893 20.893 0 005.129-5.325z"/></svg>